<?xml version="1.0" encoding="UTF-8" standalone="no"?><!-- Generator: Gravit.io --><svg xmlns="http://www.w3.org/2000/svg" xmlns:xlink="http://www.w3.org/1999/xlink" style="isolation:isolate" viewBox="300.158 133.067 318.429 43.933" width="318.429pt" height="43.933pt"><defs><clipPath id="_clipPath_JDpf91q30wemackbA5O2VTdxAWX3skdr"><rect x="300.158" y="133.067" width="318.429" height="43.933"/></clipPath></defs><g clip-path="url(#_clipPath_JDpf91q30wemackbA5O2VTdxAWX3skdr)"><rect x="300.158" y="133.067" width="318.429" height="43.933" style="fill:rgb(245,247,249)"/><path d=" M 362.071 146.864 L 362.071 146.864 L 362.071 146.864 Q 363.037 148.832 363.037 151.246 L 363.037 151.246 L 363.037 151.246 Q 363.037 153.66 362.071 155.609 L 362.071 155.609 L 362.071 155.609 Q 361.106 157.559 359.583 158.71 L 359.583 158.71 L 359.583 158.71 Q 356.501 161.086 353.196 161.086 L 353.196 161.086 L 348.555 161.086 L 348.555 165.283 L 348.555 165.283 Q 348.555 166.137 348.499 166.564 L 348.499 166.564 L 348.499 166.564 Q 348.443 166.991 348.146 167.548 L 348.146 167.548 L 348.146 167.548 Q 347.626 168.55 345.25 168.55 L 345.25 168.55 L 345.25 168.55 Q 342.65 168.55 342.205 167.176 L 342.205 167.176 L 342.205 167.176 Q 341.982 166.545 341.982 165.245 L 341.982 165.245 L 341.982 144.636 L 341.982 144.636 Q 341.982 143.782 342.038 143.355 L 342.038 143.355 L 342.038 143.355 Q 342.093 142.928 342.39 142.371 L 342.39 142.371 L 342.39 142.371 Q 342.91 141.368 345.287 141.368 L 345.287 141.368 L 353.234 141.368 L 353.234 141.368 Q 356.501 141.368 359.583 143.745 L 359.583 143.745 L 359.583 143.745 Q 361.106 144.896 362.071 146.864 Z  M 353.234 154.514 L 353.234 154.514 Q 354.348 154.514 355.424 153.697 L 355.424 153.697 L 355.424 153.697 Q 356.501 152.88 356.501 151.246 L 356.501 151.246 L 356.501 151.246 Q 356.501 149.612 355.424 148.777 L 355.424 148.777 L 355.424 148.777 Q 354.348 147.941 353.196 147.941 L 353.196 147.941 L 348.555 147.941 L 348.555 154.514 L 353.234 154.514 Z  M 382.351 141.034 L 382.351 141.034 L 382.351 141.034 Q 387.846 141.034 391.894 145.008 L 391.894 145.008 L 391.894 145.008 Q 395.941 148.981 395.941 154.867 L 395.941 154.867 L 395.941 154.867 Q 395.941 160.752 392.08 164.893 L 392.08 164.893 L 392.08 164.893 Q 388.218 169.033 382.573 169.033 L 382.573 169.033 L 382.573 169.033 Q 376.929 169.033 372.974 164.948 L 372.974 164.948 L 372.974 164.948 Q 369.02 160.864 369.02 155.219 L 369.02 155.219 L 369.02 155.219 Q 369.02 152.137 370.134 149.445 L 370.134 149.445 L 370.134 149.445 Q 371.248 146.753 373.104 144.933 L 373.104 144.933 L 373.104 144.933 Q 374.961 143.114 377.375 142.074 L 377.375 142.074 L 377.375 142.074 Q 379.788 141.034 382.351 141.034 Z  M 375.592 155.034 L 375.592 155.034 L 375.592 155.034 Q 375.592 158.339 377.727 160.399 L 377.727 160.399 L 377.727 160.399 Q 379.863 162.46 382.499 162.46 L 382.499 162.46 L 382.499 162.46 Q 385.136 162.46 387.252 160.455 L 387.252 160.455 L 387.252 160.455 Q 389.369 158.45 389.369 155.071 L 389.369 155.071 L 389.369 155.071 Q 389.369 151.692 387.234 149.649 L 387.234 149.649 L 387.234 149.649 Q 385.098 147.607 382.462 147.607 L 382.462 147.607 L 382.462 147.607 Q 379.825 147.607 377.709 149.668 L 377.709 149.668 L 377.709 149.668 Q 375.592 151.729 375.592 155.034 Z  M 435.047 141.517 L 435.047 141.517 L 435.047 141.517 Q 437.535 142.408 437.535 143.894 L 437.535 143.894 L 437.535 143.894 Q 437.535 144.376 437.09 145.713 L 437.09 145.713 L 429.96 166.322 L 429.96 166.322 Q 429.886 166.582 429.7 166.954 L 429.7 166.954 L 429.7 166.954 Q 429.515 167.325 428.716 167.938 L 428.716 167.938 L 428.716 167.938 Q 427.918 168.55 426.822 168.55 L 426.822 168.55 L 426.822 168.55 Q 425.727 168.55 424.928 167.938 L 424.928 167.938 L 424.928 167.938 Q 424.13 167.325 423.87 166.731 L 423.87 166.731 L 419.526 153.92 L 419.526 153.92 Q 415.404 166.099 415.329 166.322 L 415.329 166.322 L 415.329 166.322 Q 415.255 166.545 414.995 166.954 L 414.995 166.954 L 414.995 166.954 Q 414.735 167.362 414.401 167.696 L 414.401 167.696 L 414.401 167.696 Q 413.547 168.55 412.359 168.55 L 412.359 168.55 L 412.359 168.55 Q 411.17 168.55 410.409 167.993 L 410.409 167.993 L 410.409 167.993 Q 409.648 167.436 409.388 166.879 L 409.388 166.879 L 409.128 166.322 L 401.961 145.713 L 401.961 145.713 Q 401.553 144.488 401.553 143.894 L 401.553 143.894 L 401.553 143.894 Q 401.553 142.408 404.041 141.554 L 404.041 141.554 L 404.041 141.554 Q 405.118 141.183 405.99 141.183 L 405.99 141.183 L 405.99 141.183 Q 406.863 141.183 407.327 141.777 L 407.327 141.777 L 407.327 141.777 Q 407.791 142.371 408.163 143.596 L 408.163 143.596 L 412.247 155.999 L 416.295 143.782 L 416.295 143.782 Q 416.815 142.222 418.189 141.628 L 418.189 141.628 L 418.189 141.628 Q 418.783 141.368 419.73 141.368 L 419.73 141.368 L 419.73 141.368 Q 420.677 141.368 421.494 141.981 L 421.494 141.981 L 421.494 141.981 Q 422.311 142.594 422.533 143.188 L 422.533 143.188 L 426.804 156.073 L 430.888 143.596 L 430.888 143.596 Q 431.186 142.742 431.371 142.334 L 431.371 142.334 L 431.371 142.334 Q 431.557 141.925 432.058 141.536 L 432.058 141.536 L 432.058 141.536 Q 432.559 141.146 433.302 141.146 L 433.302 141.146 L 433.302 141.146 Q 434.045 141.146 435.047 141.517 Z  M 450.276 158.264 L 450.276 162.015 L 461.714 162.015 L 461.714 162.015 Q 462.568 162.015 462.995 162.07 L 462.995 162.07 L 462.995 162.07 Q 463.422 162.126 463.979 162.423 L 463.979 162.423 L 463.979 162.423 Q 464.981 162.943 464.981 165.32 L 464.981 165.32 L 464.981 165.32 Q 464.981 167.919 463.607 168.365 L 463.607 168.365 L 463.607 168.365 Q 462.976 168.587 461.676 168.587 L 461.676 168.587 L 446.971 168.587 L 446.971 168.587 Q 444.372 168.587 443.927 167.176 L 443.927 167.176 L 443.927 167.176 Q 443.704 166.582 443.704 165.283 L 443.704 165.283 L 443.704 144.636 L 443.704 144.636 Q 443.704 142.742 444.409 142.055 L 444.409 142.055 L 444.409 142.055 Q 445.115 141.368 447.083 141.368 L 447.083 141.368 L 461.714 141.368 L 461.714 141.368 Q 462.568 141.368 462.995 141.424 L 462.995 141.424 L 462.995 141.424 Q 463.422 141.48 463.979 141.777 L 463.979 141.777 L 463.979 141.777 Q 464.981 142.297 464.981 144.673 L 464.981 144.673 L 464.981 144.673 Q 464.981 147.273 463.607 147.718 L 463.607 147.718 L 463.607 147.718 Q 462.976 147.941 461.676 147.941 L 461.676 147.941 L 450.276 147.941 L 450.276 151.692 L 457.629 151.692 L 457.629 151.692 Q 458.483 151.692 458.91 151.747 L 458.91 151.747 L 458.91 151.747 Q 459.337 151.803 459.894 152.1 L 459.894 152.1 L 459.894 152.1 Q 460.897 152.62 460.897 154.996 L 460.897 154.996 L 460.897 154.996 Q 460.897 157.596 459.486 158.041 L 459.486 158.041 L 459.486 158.041 Q 458.854 158.264 457.555 158.264 L 457.555 158.264 L 450.276 158.264 Z  M 492.353 163.983 L 492.353 163.983 L 492.353 163.983 Q 492.91 165.32 492.91 165.914 L 492.91 165.914 L 492.91 165.914 Q 492.91 167.325 490.608 168.29 L 490.608 168.29 L 490.608 168.29 Q 489.419 168.81 488.695 168.81 L 488.695 168.81 L 488.695 168.81 Q 487.971 168.81 487.507 168.457 L 487.507 168.457 L 487.507 168.457 Q 487.043 168.105 486.82 167.733 L 486.82 167.733 L 486.82 167.733 Q 486.449 167.028 483.924 161.012 L 483.924 161.012 L 482.773 161.086 L 478.094 161.086 L 478.094 165.283 L 478.094 165.283 Q 478.094 166.137 478.038 166.564 L 478.038 166.564 L 478.038 166.564 Q 477.982 166.991 477.685 167.548 L 477.685 167.548 L 477.685 167.548 Q 477.165 168.55 474.789 168.55 L 474.789 168.55 L 474.789 168.55 Q 472.189 168.55 471.744 167.176 L 471.744 167.176 L 471.744 167.176 Q 471.521 166.545 471.521 165.245 L 471.521 165.245 L 471.521 144.636 L 471.521 144.636 Q 471.521 143.782 471.577 143.355 L 471.577 143.355 L 471.577 143.355 Q 471.632 142.928 471.929 142.371 L 471.929 142.371 L 471.929 142.371 Q 472.449 141.368 474.826 141.368 L 474.826 141.368 L 482.847 141.368 L 482.847 141.368 Q 486.115 141.368 489.197 143.745 L 489.197 143.745 L 489.197 143.745 Q 490.682 144.896 491.648 146.864 L 491.648 146.864 L 491.648 146.864 Q 492.613 148.832 492.613 151.246 L 492.613 151.246 L 492.613 151.246 Q 492.613 155.442 489.828 158.153 L 489.828 158.153 L 489.828 158.153 Q 490.645 160.121 492.353 163.983 Z  M 478.094 147.941 L 478.094 154.514 L 482.847 154.514 L 482.847 154.514 Q 483.924 154.514 485.001 153.697 L 485.001 153.697 L 485.001 153.697 Q 486.077 152.88 486.077 151.246 L 486.077 151.246 L 486.077 151.246 Q 486.077 149.612 485.001 148.777 L 485.001 148.777 L 485.001 148.777 Q 483.924 147.941 482.773 147.941 L 482.773 147.941 L 478.094 147.941 Z  M 515.9 142.371 L 515.9 142.371 L 515.9 142.371 Q 516.197 141.814 516.903 141.591 L 516.903 141.591 L 516.903 141.591 Q 517.608 141.368 518.685 141.368 L 518.685 141.368 L 518.685 141.368 Q 519.762 141.368 520.393 141.554 L 520.393 141.554 L 520.393 141.554 Q 521.024 141.74 521.359 142 L 521.359 142 L 521.359 142 Q 521.693 142.26 521.879 142.742 L 521.879 142.742 L 521.879 142.742 Q 522.064 143.374 522.064 144.673 L 522.064 144.673 L 522.064 165.283 L 522.064 165.283 Q 522.064 166.137 522.008 166.564 L 522.008 166.564 L 522.008 166.564 Q 521.953 166.991 521.656 167.548 L 521.656 167.548 L 521.656 167.548 Q 521.136 168.55 518.759 168.55 L 518.759 168.55 L 518.759 168.55 Q 516.16 168.55 515.714 167.176 L 515.714 167.176 L 515.714 167.176 Q 515.492 166.545 515.492 165.245 L 515.492 165.245 L 515.492 157.707 L 505.651 157.707 L 505.651 165.283 L 505.651 165.283 Q 505.651 166.137 505.595 166.564 L 505.595 166.564 L 505.595 166.564 Q 505.54 166.991 505.243 167.548 L 505.243 167.548 L 505.243 167.548 Q 504.723 168.55 502.346 168.55 L 502.346 168.55 L 502.346 168.55 Q 499.747 168.55 499.301 167.176 L 499.301 167.176 L 499.301 167.176 Q 499.078 166.545 499.078 165.245 L 499.078 165.245 L 499.078 144.636 L 499.078 144.636 Q 499.078 143.782 499.134 143.355 L 499.134 143.355 L 499.134 143.355 Q 499.19 142.928 499.487 142.371 L 499.487 142.371 L 499.487 142.371 Q 500.007 141.368 502.383 141.368 L 502.383 141.368 L 502.383 141.368 Q 504.983 141.368 505.465 142.742 L 505.465 142.742 L 505.465 142.742 Q 505.651 143.374 505.651 144.673 L 505.651 144.673 L 505.651 152.249 L 515.492 152.249 L 515.492 144.636 L 515.492 144.636 Q 515.492 143.782 515.547 143.355 L 515.547 143.355 L 515.547 143.355 Q 515.603 142.928 515.9 142.371 Z  M 544.868 143.299 L 544.868 143.299 L 554.895 164.02 L 554.895 164.02 Q 555.526 165.283 555.526 165.914 L 555.526 165.914 L 555.526 165.914 Q 555.526 167.251 553.372 168.328 L 553.372 168.328 L 553.372 168.328 Q 552.11 168.959 551.385 168.959 L 551.385 168.959 L 551.385 168.959 Q 550.661 168.959 550.197 168.625 L 550.197 168.625 L 550.197 168.625 Q 549.733 168.29 549.529 167.919 L 549.529 167.919 L 549.529 167.919 Q 549.324 167.548 548.953 166.805 L 548.953 166.805 L 547.022 162.795 L 536.736 162.795 L 534.805 166.805 L 534.805 166.805 Q 534.434 167.548 534.23 167.882 L 534.23 167.882 L 534.23 167.882 Q 534.025 168.216 533.561 168.569 L 533.561 168.569 L 533.561 168.569 Q 533.097 168.922 532.373 168.922 L 532.373 168.922 L 532.373 168.922 Q 531.649 168.922 530.386 168.29 L 530.386 168.29 L 530.386 168.29 Q 528.233 167.251 528.233 165.914 L 528.233 165.914 L 528.233 165.914 Q 528.233 165.283 528.864 164.02 L 528.864 164.02 L 538.89 143.262 L 538.89 143.262 Q 539.298 142.408 540.134 141.888 L 540.134 141.888 L 540.134 141.888 Q 540.969 141.368 541.898 141.368 L 541.898 141.368 L 541.898 141.368 Q 543.903 141.368 544.868 143.299 Z  M 544.349 157.299 L 541.861 152.211 L 539.41 157.299 L 544.349 157.299 Z  M 582.526 163.983 L 582.526 163.983 L 582.526 163.983 Q 583.083 165.32 583.083 165.914 L 583.083 165.914 L 583.083 165.914 Q 583.083 167.325 580.781 168.29 L 580.781 168.29 L 580.781 168.29 Q 579.593 168.81 578.868 168.81 L 578.868 168.81 L 578.868 168.81 Q 578.144 168.81 577.68 168.457 L 577.68 168.457 L 577.68 168.457 Q 577.216 168.105 576.993 167.733 L 576.993 167.733 L 576.993 167.733 Q 576.622 167.028 574.097 161.012 L 574.097 161.012 L 572.946 161.086 L 568.267 161.086 L 568.267 165.283 L 568.267 165.283 Q 568.267 166.137 568.211 166.564 L 568.211 166.564 L 568.211 166.564 Q 568.155 166.991 567.858 167.548 L 567.858 167.548 L 567.858 167.548 Q 567.338 168.55 564.962 168.55 L 564.962 168.55 L 564.962 168.55 Q 562.363 168.55 561.917 167.176 L 561.917 167.176 L 561.917 167.176 Q 561.694 166.545 561.694 165.245 L 561.694 165.245 L 561.694 144.636 L 561.694 144.636 Q 561.694 143.782 561.75 143.355 L 561.75 143.355 L 561.75 143.355 Q 561.806 142.928 562.103 142.371 L 562.103 142.371 L 562.103 142.371 Q 562.622 141.368 564.999 141.368 L 564.999 141.368 L 573.02 141.368 L 573.02 141.368 Q 576.288 141.368 579.37 143.745 L 579.37 143.745 L 579.37 143.745 Q 580.855 144.896 581.821 146.864 L 581.821 146.864 L 581.821 146.864 Q 582.786 148.832 582.786 151.246 L 582.786 151.246 L 582.786 151.246 Q 582.786 155.442 580.001 158.153 L 580.001 158.153 L 580.001 158.153 Q 580.818 160.121 582.526 163.983 Z  M 568.267 147.941 L 568.267 154.514 L 573.02 154.514 L 573.02 154.514 Q 574.097 154.514 575.174 153.697 L 575.174 153.697 L 575.174 153.697 Q 576.251 152.88 576.251 151.246 L 576.251 151.246 L 576.251 151.246 Q 576.251 149.612 575.174 148.777 L 575.174 148.777 L 575.174 148.777 Q 574.097 147.941 572.946 147.941 L 572.946 147.941 L 568.267 147.941 Z  M 618.179 142.408 L 618.179 142.408 L 618.179 142.408 Q 618.476 142.965 618.531 143.411 L 618.531 143.411 L 618.531 143.411 Q 618.587 143.856 618.587 144.71 L 618.587 144.71 L 618.587 165.32 L 618.587 165.32 Q 618.587 167.882 617.176 168.328 L 617.176 168.328 L 617.176 168.328 Q 616.471 168.55 615.394 168.55 L 615.394 168.55 L 615.394 168.55 Q 614.317 168.55 613.686 168.365 L 613.686 168.365 L 613.686 168.365 Q 613.054 168.179 612.72 167.919 L 612.72 167.919 L 612.72 167.919 Q 612.386 167.659 612.2 167.176 L 612.2 167.176 L 612.2 167.176 Q 612.014 166.545 612.014 165.245 L 612.014 165.245 L 612.014 152.806 L 612.014 152.806 Q 611.086 153.957 609.304 156.463 L 609.304 156.463 L 609.304 156.463 Q 607.521 158.97 607.039 159.601 L 607.039 159.601 L 607.039 159.601 Q 606.556 160.232 606.37 160.474 L 606.37 160.474 L 606.37 160.474 Q 606.184 160.715 605.46 161.142 L 605.46 161.142 L 605.46 161.142 Q 604.736 161.569 603.901 161.569 L 603.901 161.569 L 603.901 161.569 Q 603.065 161.569 602.378 161.179 L 602.378 161.179 L 602.378 161.179 Q 601.691 160.789 601.394 160.418 L 601.394 160.418 L 601.097 160.01 L 601.097 160.01 Q 600.354 159.081 598.164 156.055 L 598.164 156.055 L 598.164 156.055 Q 595.973 153.028 595.787 152.806 L 595.787 152.806 L 595.787 165.32 L 595.787 165.32 Q 595.787 166.174 595.731 166.601 L 595.731 166.601 L 595.731 166.601 Q 595.676 167.028 595.379 167.548 L 595.379 167.548 L 595.379 167.548 Q 594.822 168.55 592.482 168.55 L 592.482 168.55 L 592.482 168.55 Q 590.217 168.55 589.66 167.548 L 589.66 167.548 L 589.66 167.548 Q 589.363 167.028 589.307 166.582 L 589.307 166.582 L 589.307 166.582 Q 589.252 166.137 589.252 165.245 L 589.252 165.245 L 589.252 144.636 L 589.252 144.636 Q 589.252 143.782 589.307 143.355 L 589.307 143.355 L 589.307 143.355 Q 589.363 142.928 589.66 142.371 L 589.66 142.371 L 589.66 142.371 Q 590.217 141.406 592.556 141.406 L 592.556 141.406 L 592.556 141.406 Q 593.559 141.406 594.283 141.647 L 594.283 141.647 L 594.283 141.647 Q 595.007 141.888 595.23 142.148 L 595.23 142.148 L 595.453 142.371 L 603.882 153.437 L 603.882 153.437 Q 610.195 145.082 612.312 142.408 L 612.312 142.408 L 612.312 142.408 Q 612.943 141.406 615.301 141.406 L 615.301 141.406 L 615.301 141.406 Q 617.659 141.406 618.179 142.408 Z " fill="rgb(64,63,63)"/><path d=" M 326.49 154.458 C 326.324 153.855 325.908 153.351 325.348 153.074 L 317.9 149.383 L 319.899 135.563 C 320.034 134.579 319.492 133.626 318.576 133.24 C 317.66 132.854 316.599 133.131 315.988 133.915 L 300.609 153.689 C 300.194 154.233 300.055 154.94 300.236 155.6 C 300.413 156.267 300.893 156.812 301.532 157.072 L 310.913 160.829 L 308.914 174.495 C 308.774 175.505 309.347 176.478 310.298 176.846 C 310.556 176.953 310.832 177.005 311.111 177 C 311.846 176.996 312.53 176.625 312.935 176.011 L 326.117 156.237 C 326.493 155.726 326.629 155.077 326.49 154.458 Z " fill="rgb(64,63,63)"/></g></svg>